<?xml version="1.0" encoding="utf-8"?>
<!-- Generator: Fusion 360, Shaper Origin Export Add-In, Version 1.6.10  -->
<svg xmlns="http://www.w3.org/2000/svg" xmlns:xlink="http://www.w3.org/1999/xlink" xmlns:shaper="http://www.shapertools.com/namespaces/shaper" shaper:fusionaddin="version:1.6.10" width="5.6542063cm" height="2.9162096cm" version="1.1" x="0cm" y="0cm" viewBox="0 0 5.6542063 2.9162096" enable-background="new 0 0 5.6542063 2.9162096" xml:space="preserve"><path d="M-2.106882,-0.6089515 L-3.0619749,-0.6089515 -3.1188427,-0.8136755 2.5353636,-0.8136755 -2.3087845,2.102534 -2.3656522,1.89781 -1.5473922,1.405212 -1.5034094,1.2947658 -2.0122369,-0.5370131 -2.106882,-0.6089515z" transform="matrix(1,0,0,-1,3.1188427,2.102534)" fill="rgb(0,0,0)" stroke-linecap="round" stroke-linejoin="round" /><path d="M0.7186225,-0.6089515 L0.3324194,-0.2017466 0.8733123,-0.0520683 1.7983572,-0.6089515 0.7186225,-0.6089515z" transform="matrix(1,0,0,-1,3.1188427,2.102534)" fill="rgb(255,255,255)" stroke="rgb(0,0,0)" stroke-width="0.0010cm" stroke-linecap="round" stroke-linejoin="round" /><path d="M-1.1210414,-0.6039547 L0.108921,-0.2635941 0.4364664,-0.6089515 -1.6109984,-0.6089515 -0.9205979,0.4650144 A0.081788,0.081788 147.2650072 0,0 -0.7729952,0.3988971 L-1.0329703,-0.5370131 -1.1210414,-0.6039547z" transform="matrix(1,0,0,-1,3.1188427,2.102534)" fill="rgb(255,255,255)" stroke="rgb(0,0,0)" stroke-width="0.0010cm" stroke-linecap="round" stroke-linejoin="round" /><path d="M0.1728392,-0.0334884 L-0.7182595,0.9060686 0.6315797,0.0934563 0.1728392,-0.0334884z" transform="matrix(1,0,0,-1,3.1188427,2.102534)" fill="rgb(255,255,255)" stroke="rgb(0,0,0)" stroke-width="0.0010cm" stroke-linecap="round" stroke-linejoin="round" /><path d="M-0.7516937,-0.2893292 L-0.551205,0.4324298 -0.0506592,-0.0953359 -0.7516937,-0.2893292z" transform="matrix(1,0,0,-1,3.1188427,2.102534)" fill="rgb(255,255,255)" stroke="rgb(0,0,0)" stroke-width="0.0010cm" stroke-linecap="round" stroke-linejoin="round" /><path d="M-1.2182727,1.2070798 L-0.8351903,0.9764617 -1.501143,-0.0594741 A0.081788,0.081788 327.2650072 0,0 -1.6487457,0.0066432 L-1.327358,1.163639 -1.2182727,1.2070798z" transform="matrix(1,0,0,-1,3.1188427,2.102534)" fill="rgb(255,255,255)" stroke="rgb(0,0,0)" stroke-width="0.0010cm" stroke-linecap="round" stroke-linejoin="round" /></svg>